<?xml version="1.0" ?><!-- Uploaded to: SVG Repo, www.svgrepo.com, Generator: SVG Repo Mixer Tools -->
<svg width="800px" height="800px" viewBox="0 0 56 56" data-name="01 Betta Fish Plakat" id="_01_Betta_Fish_Plakat" xmlns="http://www.w3.org/2000/svg"><defs><style>.cls-1{fill:#231f20;}</style></defs><title/><path class="cls-1" d="M41,14H38.93A8,8,0,0,0,24,18v2H11a9,9,0,0,0-9,9,5,5,0,0,0,5,5h3.51L7.07,42.63a1,1,0,0,0,.56,1.3A1,1,0,0,0,8,44a1,1,0,0,0,.93-.63L12,35.69l3.07,7.68A1,1,0,0,0,16,44a1,1,0,0,0,.37-.07,1,1,0,0,0,.56-1.3L13.48,34H18v5a1,1,0,0,0,.71,1l20,6A1,1,0,0,0,39,46a1,1,0,0,0,.6-.2A1,1,0,0,0,40,45V40h1a13,13,0,0,0,0-26ZM26,18a6,6,0,0,1,12,0v2H26ZM4,29a7,7,0,0,1,7-7H38V32H7A3,3,0,0,1,4,29ZM38,43.66l-18-5.4V34H38v9.66ZM41,38H40V16h1a11,11,0,0,1,0,22Z"/><path class="cls-1" d="M12,26a3,3,0,1,0-3,3A3,3,0,0,0,12,26ZM9,27a1,1,0,1,1,1-1A1,1,0,0,1,9,27Z"/><path class="cls-1" d="M14,29a1,1,0,0,0,0,2,3,3,0,0,0,0-6,1,1,0,0,0,0,2,1,1,0,0,1,0,2Z"/></svg>