<?xml version="1.0" ?>
<!-- Uploaded to: SVG Repo, www.svgrepo.com, Generator: SVG Repo Mixer Tools -->
<svg width="800px" height="800px" viewBox="0 0 56 56" xmlns="http://www.w3.org/2000/svg">
<defs>
<style>.cls-1{fill:#231f20;}</style>
</defs>
<title/>
<g data-name="19 Arapaima" id="_19_Arapaima">
<path class="cls-1" d="M6,26a3,3,0,1,0,3-3A3,3,0,0,0,6,26Zm3-1a1,1,0,1,1-1,1A1,1,0,0,1,9,25Z"/>
<path class="cls-1" d="M17,29a3,3,0,0,0-3-3,1,1,0,0,0,0,2,1,1,0,0,1,0,2,1,1,0,0,0,0,2A3,3,0,0,0,17,29Z"/>
<path class="cls-1" d="M52.25,22.44a3.41,3.41,0,0,0-3.5.08l-3.57,2.21c-.07-.14-.16-.28-.24-.42A1.07,1.07,0,0,0,45,24V21.09A4.09,4.09,0,0,0,40.91,17,3.91,3.91,0,0,0,37,20.91S37,21,37,21H3a1,1,0,0,0-1,1A13,13,0,0,0,14.13,35a4,4,0,0,0,7.73,0H37s0,.06,0,.09A3.91,3.91,0,0,0,40.91,39,4.09,4.09,0,0,0,45,34.91V32a1.07,1.07,0,0,0-.06-.31c.08-.14.17-.28.24-.42l3.57,2.21a3.44,3.44,0,0,0,3.5.08,3.37,3.37,0,0,0,1.75-3V25.41A3.37,3.37,0,0,0,52.25,22.44ZM39,20.91A1.92,1.92,0,0,1,40.91,19,2.1,2.1,0,0,1,43,21.09v1.17A7,7,0,0,0,39,21h0S39,20.94,39,20.91ZM4,23H39a5,5,0,0,1,0,10H15A11,11,0,0,1,4,23ZM18,36a2,2,0,0,1-1.72-1h3.44A2,2,0,0,1,18,36Zm22.91,1A1.92,1.92,0,0,1,39,35.09S39,35,39,35h0a7,7,0,0,0,4-1.26v1.17A2.1,2.1,0,0,1,40.91,37ZM52,30.59a1.37,1.37,0,0,1-.73,1.22,1.41,1.41,0,0,1-1.47,0L46,29.42V26.58l3.8-2.36a1.44,1.44,0,0,1,1.47,0A1.37,1.37,0,0,1,52,25.41Z"/>
</g>
</svg>