<?xml version="1.0" ?>
<!-- Uploaded to: SVG Repo, www.svgrepo.com, Generator: SVG Repo Mixer Tools -->
<svg width="800px" height="800px" viewBox="0 0 56 56" xmlns="http://www.w3.org/2000/svg">
<defs>
<style>.cls-1{fill:#231f20;}</style>
</defs>
<title/>
<g data-name="12 Anggel Fish" id="_12_Anggel_Fish">
<path class="cls-1" d="M14,25a3,3,0,1,0,3,3A3,3,0,0,0,14,25Zm0,4a1,1,0,1,1,1-1A1,1,0,0,1,14,29Z"/>
<path class="cls-1" d="M19,28a1,1,0,0,0,0,2,1,1,0,1,1,0,2,1,1,0,0,0,0,2,3,3,0,1,0,0-6Z"/>
<path class="cls-1" d="M44.47,17.12a1,1,0,0,0-1,.05L33,24.13V4a1,1,0,0,0-.62-.92,1,1,0,0,0-1.09.21l-24,24a1,1,0,0,0,0,1.42l24,24A1,1,0,0,0,32,53a.84.84,0,0,0,.38-.08A1,1,0,0,0,33,52V31.87l10.45,7A1,1,0,0,0,45,38V18A1,1,0,0,0,44.47,17.12ZM31,49.59,9.41,28,31,6.41V49.59ZM43,36.13,33,29.46V26.54l10-6.67Z"/>
</g>
</svg>