<?xml version="1.0" ?>
<!-- Uploaded to: SVG Repo, www.svgrepo.com, Generator: SVG Repo Mixer Tools -->
<svg width="800px" height="800px" viewBox="0 0 56 56" xmlns="http://www.w3.org/2000/svg">
<defs>
<style>.cls-1{fill:#231f20;}</style>
</defs>
<title/>
<g data-name="16 Catfish" id="_16_Catfish">
<path class="cls-1" d="M52.25,21.44a3.41,3.41,0,0,0-3.5.08L46,23.22V22a1,1,0,0,0-1-1H24a4,4,0,0,0-8,0H11a7,7,0,0,0-3.69,1.06A1.07,1.07,0,0,0,7,22a3,3,0,0,1-3-3,1,1,0,0,0-2,0,5,5,0,0,0,3.46,4.73,7,7,0,0,0,0,8.54A5,5,0,0,0,2,37a1,1,0,0,0,2,0,3,3,0,0,1,3-3,1.07,1.07,0,0,0,.31-.06A7,7,0,0,0,11,35h5a4,4,0,0,0,8,0H37s0,.06,0,.09A3.91,3.91,0,0,0,40.91,39,4.09,4.09,0,0,0,45,34.91V32a1,1,0,0,0-.19-.56,7.51,7.51,0,0,0,.56-1.05l3.38,2.09a3.44,3.44,0,0,0,3.5.08,3.37,3.37,0,0,0,1.75-3V24.41A3.37,3.37,0,0,0,52.25,21.44ZM20,19a2,2,0,0,1,2,2H18A2,2,0,0,1,20,19ZM10,25a1,1,0,1,1-1,1A1,1,0,0,1,10,25Zm1,8a5,5,0,0,1-3.62-8.43A2.91,2.91,0,0,0,7,26a3,3,0,1,0,3.5-2.95A4.23,4.23,0,0,1,11,23H44v4.36A5.65,5.65,0,0,1,38.36,33H11Zm9,4a2,2,0,0,1-2-2h4A2,2,0,0,1,20,37Zm20.91,0A1.92,1.92,0,0,1,39,35.09S39,35,39,35a7.51,7.51,0,0,0,4-1.56v1.5A2.1,2.1,0,0,1,40.91,37ZM52,29.59a1.37,1.37,0,0,1-.73,1.22,1.44,1.44,0,0,1-1.47,0L46,28.42V25.58l3.8-2.36a1.44,1.44,0,0,1,1.47,0A1.37,1.37,0,0,1,52,24.41Z"/>
<path class="cls-1" d="M18,29a3,3,0,0,0-3-3,1,1,0,0,0,0,2,1,1,0,0,1,0,2,1,1,0,0,0,0,2A3,3,0,0,0,18,29Z"/>
</g>
</svg>