<?xml version="1.0" ?>
<!-- Uploaded to: SVG Repo, www.svgrepo.com, Generator: SVG Repo Mixer Tools -->
<svg width="800px" height="800px" viewBox="0 0 56 56" xmlns="http://www.w3.org/2000/svg">
<defs>
<style>.cls-1{fill:#231f20;}</style>
</defs>
<title/>
<g data-name="03 Betta Fish Doubletail" id="_03_Betta_Fish_Doubletail">
<path class="cls-1" d="M12,27a3,3,0,1,0-3,3A3,3,0,0,0,12,27ZM9,28a1,1,0,1,1,1-1A1,1,0,0,1,9,28Z"/>
<path class="cls-1" d="M14,30a1,1,0,0,0,0,2,3,3,0,0,0,0-6,1,1,0,0,0,0,2,1,1,0,0,1,0,2Z"/>
<path class="cls-1" d="M52.62,28A4,4,0,0,0,54,25,16,16,0,0,0,38,9H28a6,6,0,0,0-6,6v6H11a9,9,0,0,0-9,9,5,5,0,0,0,5,5h3.5L7.07,43.63a1,1,0,0,0,.56,1.3A1,1,0,0,0,8,45a1,1,0,0,0,.93-.63L12,36.69l3.07,7.68A1,1,0,0,0,16,45a1,1,0,0,0,.37-.07,1,1,0,0,0,.56-1.3L13.48,35H18v6a6,6,0,0,0,6,6H38A16,16,0,0,0,54,31,4,4,0,0,0,52.62,28ZM52,25a2,2,0,0,1-2,2H36V11h2A14,14,0,0,1,52,25ZM24,15a4,4,0,0,1,4-4h6V21H24ZM4,30a7,7,0,0,1,7-7H34V33H7A3,3,0,0,1,4,30ZM20,41V35H34V45H24A4,4,0,0,1,20,41Zm18,4H36V29H50a2,2,0,0,1,2,2A14,14,0,0,1,38,45Z"/>
</g>
</svg>