<?xml version="1.0" ?>
<!-- Uploaded to: SVG Repo, www.svgrepo.com, Generator: SVG Repo Mixer Tools -->
<svg width="800px" height="800px" viewBox="0 0 56 56" xmlns="http://www.w3.org/2000/svg">
<defs>
<style>.cls-1{fill:#231f20;}</style>
</defs>
<title/>
<g data-name="10 Palypterus Fish" id="_10_Palypterus_Fish">
<path class="cls-1" d="M11,25a3,3,0,1,0,3,3A3,3,0,0,0,11,25Zm0,4a1,1,0,1,1,1-1A1,1,0,0,1,11,29Z"/>
<path class="cls-1" d="M19,31a3,3,0,0,0-3-3,1,1,0,0,0,0,2,1,1,0,0,1,0,2,1,1,0,0,0,0,2A3,3,0,0,0,19,31Z"/>
<path class="cls-1" d="M50.5,28h-4l-.08,0a6.94,6.94,0,0,0-1.18-3H49.5a1,1,0,0,0,0-2h-6a1.07,1.07,0,0,0-.31.06A7,7,0,0,0,41,22.17V19a1,1,0,0,0-2,0v3H37V19a1,1,0,0,0-2,0v3H33V19a1,1,0,0,0-2,0v3H29V19a1,1,0,0,0-2,0v3H11.5a7,7,0,0,0,0,14H39v1a1,1,0,0,0,2,0V35.83a7,7,0,0,0,2.19-.89,1.07,1.07,0,0,0,.31.06h6a1,1,0,0,0,0-2H45.24a6.94,6.94,0,0,0,1.18-3l.08,0h4a1,1,0,0,0,0-2Zm-39,6a5,5,0,0,1,0-10h28a5,5,0,0,1,0,10h-28Z"/>
</g>
</svg>