<?xml version="1.0" ?>
<!-- Uploaded to: SVG Repo, www.svgrepo.com, Generator: SVG Repo Mixer Tools -->
<svg width="800px" height="800px" viewBox="0 0 56 56" xmlns="http://www.w3.org/2000/svg">
<defs>
<style>.cls-1{fill:#231f20;}</style>
</defs>
<title/>
<g data-name="04 Betta Fish Crowntail" id="_04_Betta_Fish_Crowntail">
<path class="cls-1" d="M9,24a3,3,0,1,0,3,3A3,3,0,0,0,9,24Zm0,4a1,1,0,1,1,1-1A1,1,0,0,1,9,28Z"/>
<path class="cls-1" d="M14,26a1,1,0,0,0,0,2,1,1,0,0,1,0,2,1,1,0,0,0,0,2,3,3,0,0,0,0-6Z"/>
<path class="cls-1" d="M53,27H49a1,1,0,0,0,0,2h4a1,1,0,0,0,0-2Z"/>
<path class="cls-1" d="M47,21h4a1,1,0,0,0,0-2H47a1,1,0,0,0,0,2Z"/>
<path class="cls-1" d="M41.59,16.41a1,1,0,0,0,.7-.29l2.83-2.83a1,1,0,0,0-1.41-1.41l-2.83,2.83a1,1,0,0,0,0,1.41A1,1,0,0,0,41.59,16.41Z"/>
<path class="cls-1" d="M51,35H47a1,1,0,0,0,0,2h4a1,1,0,0,0,0-2Z"/>
<path class="cls-1" d="M42.29,39.88a1,1,0,0,0-1.41,1.41l2.83,2.83a1,1,0,0,0,1.41,0,1,1,0,0,0,0-1.41Z"/>
<path class="cls-1" d="M46,28A13,13,0,0,0,33,15H31a5,5,0,0,0-5,5v1H11a9,9,0,0,0-9,9,5,5,0,0,0,5,5h3.52L7.07,43.63a1,1,0,0,0,.56,1.3A1,1,0,0,0,8,45a1,1,0,0,0,.93-.63L12,36.69l3.07,7.68A1,1,0,0,0,16,45a1,1,0,0,0,.37-.07,1,1,0,0,0,.56-1.3L13.48,35H20a6.08,6.08,0,0,0,6.07,6H33A13,13,0,0,0,46,28Zm-2,0A11,11,0,0,1,34,39V17A11,11,0,0,1,44,28ZM28,20a3.05,3.05,0,0,1,3-3h1v4H28ZM4,30a7,7,0,0,1,7-7H32V33H7A3,3,0,0,1,4,30Zm18,5H32v4H26.07A4.08,4.08,0,0,1,22,35Z"/>
<path class="cls-1" d="M25,16a1,1,0,0,0,1-1V11a1,1,0,0,0-2,0v4A1,1,0,0,0,25,16Z"/>
<path class="cls-1" d="M25,42a1,1,0,0,0-1,1v4a1,1,0,0,0,2,0V43A1,1,0,0,0,25,42Z"/>
<path class="cls-1" d="M34,42a1,1,0,0,0-1,1v4a1,1,0,0,0,2,0V43A1,1,0,0,0,34,42Z"/>
<path class="cls-1" d="M34,14a1,1,0,0,0,1-1V9a1,1,0,0,0-2,0v4A1,1,0,0,0,34,14Z"/>
</g>
</svg>