<?xml version="1.0" ?>
<!-- Uploaded to: SVG Repo, www.svgrepo.com, Generator: SVG Repo Mixer Tools -->
<svg width="800px" height="800px" viewBox="0 0 56 56" xmlns="http://www.w3.org/2000/svg">
<defs>
<style>.cls-1{fill:#231f20;}</style>
</defs>
<title/>
<g data-name="09 Black Ghost Fish" id="_09_Black_Ghost_Fish">
<path class="cls-1" d="M9,23a3,3,0,1,0,3,3A3,3,0,0,0,9,23Zm0,4a1,1,0,1,1,1-1A1,1,0,0,1,9,27Z"/>
<path class="cls-1" d="M14,26a1,1,0,1,0,0,2,1,1,0,0,1,0,2,1,1,0,1,0,0,2,3,3,0,0,0,0-6Z"/>
<path class="cls-1" d="M53,19H11a9.14,9.14,0,0,0-9,9.25,8.74,8.74,0,0,0,5.31,8.11,8.58,8.58,0,0,0,6.91-.24l2.32-1.06a8.26,8.26,0,0,1,6.88,0A16.29,16.29,0,0,0,31,37a13.57,13.57,0,0,0,7.11-2A17.25,17.25,0,0,0,46,21h7a1,1,0,0,0,0-2ZM37.06,33.31c-3.79,2.29-8.31,2.27-12.76-.07a10.31,10.31,0,0,0-8.6,0l-2.37,1.09A6.55,6.55,0,0,1,8,34.49a6.72,6.72,0,0,1-4-6.24A7.13,7.13,0,0,1,11,21H44A15.24,15.24,0,0,1,37.06,33.31Z"/>
</g>
</svg>