<?xml version="1.0" ?>
<!-- Uploaded to: SVG Repo, www.svgrepo.com, Generator: SVG Repo Mixer Tools -->
<svg width="800px" height="800px" viewBox="0 0 56 56" id="Layer_1" version="1.1" xml:space="preserve" xmlns="http://www.w3.org/2000/svg" xmlns:xlink="http://www.w3.org/1999/xlink">
<style type="text/css">
	.st0{fill:#231F20;}
</style>
<title/>
<g>
<path class="st0" d="M12,27c0-1.7-1.3-3-3-3s-3,1.3-3,3s1.3,3,3,3S12,28.7,12,27z M9,28c-0.6,0-1-0.4-1-1s0.4-1,1-1s1,0.4,1,1   S9.6,28,9,28z"/>
<path class="st0" d="M14,30c-0.6,0-1,0.4-1,1s0.4,1,1,1c1.7,0,3-1.3,3-3s-1.3-3-3-3c-0.6,0-1,0.4-1,1s0.4,1,1,1c0.6,0,1,0.4,1,1   S14.6,30,14,30z"/>
<path class="st0" d="M35,9h-7c-3.3,0-6,2.7-6,6v6H11c-5,0-9,4-9,9c0,2.8,2.3,5,5,5h3.5l-3.5,8.6c-0.2,0.5,0,1.1,0.6,1.3   C7.8,45,7.9,45,8,45c0.4,0,0.8-0.2,0.9-0.6l3.1-7.7l3.1,7.7c0.2,0.4,0.5,0.6,0.9,0.6c0.1,0,0.2,0,0.4-0.1c0.5-0.2,0.8-0.8,0.6-1.3   L13.5,35H18v6c0,3.3,2.7,6,6,6h11c10.5,0,19-8.5,19-19S45.5,9,35,9z M24,15c0-2.2,1.8-4,4-4h6v10H24V15z M4,30c0-3.9,3.1-7,7-7h12   h11v10H19h-7c0,0,0,0,0,0H7C5.4,33,4,31.6,4,30z M20,41v-6h14v10H24C21.8,45,20,43.2,20,41z M36,45V34V22V11c8.9,0.5,16,7.9,16,17   S44.9,44.5,36,45z"/>
</g>
</svg>